{"title":"2014.Oscars.Red.Carpet.Live.1080i.HDTV.DD5.1.MPEG2-TxN [PublicHD","uid":9688722,"size":6271075113,"categoryP":"video","categoryS":"hd___tv_shows","magnet":"?xt=urn:btih:aa8dc739ca90c1fd5a28a0ee44eb081f6515f1fa&amp;dn=2014.Oscars.Red.Carpet.Live.1080i.HDTV.DD5.1.MPEG2-TxN+%5BPublicHD&amp;tr=udp%3A%2F%2Ftracker.openbittorrent.com%3A80&amp;tr=udp%3A%2F%2Fopen.demonii.com%3A1337&amp;tr=udp%3A%2F%2Ftracker.coppersurfer.tk%3A6969&amp;tr=udp%3A%2F%2Fexodus.desync.com%3A6969","seeders":2,"leechers":1,"uploader":"DibyaTPB","files":2,"time":1393826143,"description":"                PublicHD - High-Definition Bittorrent Community\n      \n                           \n    \n              ----------------------------------------------------\n\n2014.Oscars.Red.Carpet.Live.1080i.HDTV.DD5.1.MPEG2-TxN [PublicHD]\n\nGeneral\nID : 1 (0x1)\nComplete name : Oscars Red Carpet Live 2014 1080i HDTV DD5.1 MPEG2.ts\nFormat : MPEG-TS\nFile size : 5.84 GiB\nDuration : 1h 2mn\nOverall bit rate mode : Variable\nOverall bit rate : 13.5 Mbps\n\nVideo\nID : 1984 (0x7C0)\nMenu ID : 1 (0x1)\nFormat : MPEG Video\nFormat version : Version 2\nFormat profile : Main@High\nFormat settings, BVOP : Yes\nFormat settings, Matrix : Custom\nFormat settings, GOP : M=3, N=15\nCodec ID : 2\nDuration : 1h 2mn\nBit rate mode : Variable\nBit rate : 12.1 Mbps\nMaximum bit rate : 24.0 Mbps\nWidth : 1 920 pixels\nHeight : 1 080 pixels\nDisplay aspect ratio : 16:9\nFrame rate : 29.970 fps\nColor space : YUV\nChroma subsampling : 4:2:0\nBit depth : 8 bits\nScan type : Interlaced\nScan order : Top Field First\nCompression mode : Lossy\nBits/(Pixel*Frame) : 0.195\nStream size : 5.27 GiB (90%)\n\nAudio #1\nID : 1985 (0x7C1)\nMenu ID : 1 (0x1)\nFormat : AC-3\nFormat/Info : Audio Coding 3\nMode extension : CM (complete main)\nFormat settings, Endianness : Big\nCodec ID : 129\nDuration : 1h 2mn\nBit rate mode : Constant\nBit rate : 448 Kbps\nChannel(s) : 6 channels\nChannel positions : Front: L C R, Side: L R, LFE\nSampling rate : 48.0 KHz\nBit depth : 16 bits\nCompression mode : Lossy\nDelay relative to video : 27ms\nStream size : 199 MiB (3%)\nLanguage : English\n\nAudio #2\nID : 1986 (0x7C2)\nMenu ID : 1 (0x1)\nFormat : AC-3\nFormat/Info : Audio Coding 3\nMode extension : VI (visually impaired)\nFormat settings, Endianness : Big\nCodec ID : 129\nDuration : 1h 2mn\nBit rate mode : Constant\nBit rate : 192 Kbps\nChannel(s) : 2 channels\nChannel positions : Front: L R\nSampling rate : 48.0 KHz\nBit depth : 16 bits\nCompression mode : Lossy\nDelay relative to video : 1ms\nStream size : 85.3 MiB (1%)\nLanguage : Spanish\n\nText #1\nID : 1984 (0x7C0)-CC1\nMenu ID : 1 (0x1)\nFormat : EIA-608\nMuxing mode : A/53 / DTVCC Transport\nMuxing mode, more info : Muxed in Video #1\nDuration : 1h 2mn\nBit rate mode : Constant\nStream size : 0.00 Byte (0%)\n\nText #2\nID : 1984 (0x7C0)-1\nMenu ID : 1 (0x1)\nFormat : EIA-708\nMuxing mode : A/53 / DTVCC Transport\nMuxing mode, more info : Muxed in Video #1\nDuration : 1h 2mn\nBit rate mode : Constant\nStream size : 0.00 Byte (0%)","torrent":{"xt":"urn:btih:aa8dc739ca90c1fd5a28a0ee44eb081f6515f1fa","amp;dn":"2014.Oscars.Red.Carpet.Live.1080i.HDTV.DD5.1.MPEG2-TxN+%5BPublicHD","amp;tr":["udp%3A%2F%2Ftracker.openbittorrent.com%3A80","udp%3A%2F%2Fopen.demonii.com%3A1337","udp%3A%2F%2Ftracker.coppersurfer.tk%3A6969","udp%3A%2F%2Fexodus.desync.com%3A6969"],"infoHash":"aa8dc739ca90c1fd5a28a0ee44eb081f6515f1fa","infoHashBuffer":{"type":"Buffer","data":[170,141,199,57,202,144,193,253,90,40,160,238,68,235,8,31,101,21,241,250]},"announce":[],"urlList":[]}}